<?xml version="1.0" encoding="UTF-8" standalone="no"?>
<svg width="359px" height="58px" viewBox="0 0 359 58" version="1.1" xmlns="http://www.w3.org/2000/svg" xmlns:xlink="http://www.w3.org/1999/xlink">
    <!-- Generator: Sketch 42 (36781) - http://www.bohemiancoding.com/sketch -->
    <title>brandingDMC_logo_Red_Black_Large</title>
    <desc>Created with Sketch.</desc>
    <defs></defs>
    <g id="Style-Guide" stroke="none" stroke-width="1" fill="none" fill-rule="evenodd">
        <g id="Logos-and-Colors" transform="translate(-67.000000, -95.000000)">
            <g id="Logo-Full-Color" transform="translate(67.000000, 79.000000)">
                <g id="DMC_logo_Red_Black_Large" transform="translate(0.000000, 16.000000)">
                    <path d="M153.63,1.683 C159.338,2.932 164.688,7.925 165.757,14.882 L165.757,20.945 L149.706,20.945 C149.348,19.341 149.529,17.2 148.1,15.774 C145.604,13.277 142.394,13.812 139.362,14.167 C135.794,14.703 132.604,18.891 131.533,21.388 C129.584,21.328 89.317,21.362 89.317,21.362 C91.459,16.366 96.198,8.105 99.409,2.218 L119.563,2.218 C118.934,5.576 116.49,16.132 116.423,16.232 L117.066,16.666 L117.244,16.129 C122.24,9.532 129.374,2.932 137.043,1.683 C137.043,1.683 140.439,0.77 141.407,0.77 C143.11,0.286 149.345,0.616 153.63,1.683" id="Fill-1" fill="#E13A3E"></path>
                    <path d="M80.502,2.397 C81.037,8.817 81.643,14.541 82.085,21.272 L39.301,21.481 C38.767,19.341 37.696,18.092 35.734,16.843 C33.058,15.417 28.421,16.309 25.032,16.129 C22.001,30.042 19.147,44.311 16.291,56.44 L0,56.43 C3.746,38.414 11.833,3.11 11.833,3.11 C19.503,3.289 37.161,2.218 45.544,4.003 C50.539,5.25 55.175,11.314 56.245,16.129 C58.764,8.436 59.396,4.819 60.169,2.397 L80.502,2.397" id="Fill-3" fill="#E13A3E"></path>
                    <path d="M82.247,23.537 C82.287,23.756 82.356,24.841 82.5,25.969 L69.98,25.941 L39.206,26.168 C39.382,24.932 39.46,24.256 39.516,23.475 L82.247,23.537" id="Fill-4" fill="#E13A3E"></path>
                    <path d="M130.978,23.443 C130.8,23.799 130.443,25.048 130.086,25.941 L99.409,26.118 L99.051,24.869 L98.338,26.118 L86.924,26.118 C87.302,25.193 87.822,24.152 88.172,23.443 L130.978,23.443" id="Fill-5" fill="#E13A3E"></path>
                    <path d="M68.945,28.024 C68.918,28.029 68.731,29.328 68.551,30.221 L38.587,30.221 L38.945,28.081 C48.754,28.081 58.991,27.992 68.945,28.024" id="Fill-6" fill="#E13A3E"></path>
                    <polyline id="Fill-7" fill="#E13A3E" points="82.816 30.235 70.514 30.221 70.335 28.081 82.689 28.055 82.816 30.235"></polyline>
                    <path d="M96.198,30.221 L84.783,30.221 L84.604,30.042 C85.141,29.328 85.496,28.793 85.853,28.081 L97.267,28.081 L96.198,30.221" id="Fill-8" fill="#E13A3E"></path>
                    <polyline id="Fill-9" fill="#E13A3E" points="129.017 30.042 98.518 30.221 99.024 28.122 129.374 28.081 129.017 30.042"></polyline>
                    <path d="M68.017,32.36 C67.933,33.016 67.839,33.074 67.66,34.503 C58.921,34.858 38.72,34.516 37.748,34.472 C37.97,33.809 38.053,32.896 38.23,32.181 L68.017,32.36" id="Fill-10" fill="#E13A3E"></path>
                    <path d="M82.465,32.181 C82.689,32.606 82.974,32.952 82.974,32.921 C83.005,32.952 83.733,32.132 83.733,32.132 C87.461,32.132 91.383,32.181 95.306,32.181 L94.059,34.68 L70.87,34.68 C70.633,33.299 70.721,33.562 70.514,32.181 L82.465,32.181" id="Fill-11" fill="#E13A3E"></path>
                    <path d="M128.685,32.207 C128.562,32.92 128.482,33.431 128.482,34.503 L97.453,34.539 C97.453,34.361 97.793,33.008 97.981,32.181 L128.685,32.207" id="Fill-12" fill="#E13A3E"></path>
                    <path d="M67.304,36.64 C66.233,42.706 64.808,49.663 63.559,55.727 L48.398,55.727 C48.932,51.445 50.181,46.45 50.716,42.527 C46.614,48.234 39.301,54.298 30.562,55.727 C27.708,56.44 24.319,56.083 20.931,56.26 C21.645,52.338 22.178,47.701 23.427,43.064 C28.777,43.242 33.415,41.991 36.27,36.64 L67.304,36.64" id="Fill-13" fill="#E13A3E"></path>
                    <path d="M83.712,55.727 L72.298,55.727 C71.763,49.663 71.05,42.527 71.05,36.64 L93.167,36.64 L83.712,55.727" id="Fill-14" fill="#E13A3E"></path>
                    <path d="M128.438,36.764 C129.33,39.084 130.044,41.937 132.898,43.366 C132.898,43.366 134.238,44.029 136.61,43.873 L139.169,43.535 C143.3,43.22 145.917,37.836 146.631,36.764 L162.685,36.764 C162.688,36.752 162.653,37.405 162.328,38.192 C159.831,44.79 152.521,52.142 145.74,54.6 C144.112,55.48 140.746,56.565 140.746,56.565 C132.006,58.167 121.839,57.455 115.063,49.249 C113.634,46.574 111.851,44.258 111.851,41.223 L111.143,40.951 L107.724,55.637 C107.282,55.762 96.69,55.671 92.768,55.671 C94.372,48.717 95.619,42.115 97.047,36.764 L128.438,36.764" id="Fill-15" fill="#E13A3E"></path>
                    <path d="M179.406,13.244 L181.604,13.244 C184.593,13.244 185.279,10.153 185.279,8.782 C185.279,6.563 184.136,6.023 182.601,6.023 L180.92,6.023 L179.406,13.244 L179.406,13.244 Z M177.125,2.227 L183.95,2.227 C186.669,2.227 190.091,3.927 189.841,8.762 C189.592,13.7 186.5,17.041 181.356,17.041 L174.033,17.041 L177.125,2.227 L177.125,2.227 Z" id="Fill-16" fill="#1A1918"></path>
                    <path d="M195.611,11.749 L198.453,11.749 L197.954,7.309 L197.913,7.309 L195.611,11.749 L195.611,11.749 Z M196.73,2.227 L201.212,2.227 L203.516,17.041 L199.033,17.041 L198.786,14.924 L193.95,14.924 L192.809,17.041 L188.161,17.041 L196.73,2.227 L196.73,2.227 Z" id="Fill-17" fill="#1A1918"></path>
                    <polyline id="Fill-18" fill="#1A1918" points="206.856 2.227 211.379 2.227 214.16 10.318 214.202 10.318 215.862 2.227 220.196 2.227 217.083 17.041 212.603 17.041 209.882 8.742 209.843 8.742 208.121 17.041 203.785 17.041 206.856 2.227"></polyline>
                    <polyline id="Fill-19" fill="#1A1918" points="221.94 2.227 226.504 2.227 223.433 17.041 218.869 17.041 221.94 2.227"></polyline>
                    <polyline id="Fill-20" fill="#1A1918" points="228.165 2.227 240.406 2.227 239.636 6.023 231.96 6.023 231.567 7.869 238.683 7.869 237.958 11.397 230.818 11.397 230.425 13.244 238.267 13.244 237.48 17.041 225.071 17.041 228.165 2.227"></polyline>
                    <polyline id="Fill-21" fill="#1A1918" points="242.084 2.227 246.649 2.227 244.366 13.244 250.923 13.244 250.136 17.041 239.015 17.041 242.084 2.227"></polyline>
                    <path d="M260.55,6.709 C260.571,6.106 260.363,5.733 260.031,5.484 C259.701,5.234 259.223,5.152 258.704,5.152 C257.936,5.152 256.941,5.38 256.941,6.355 C256.941,7.476 259.16,7.538 260.613,8.056 C263.185,8.969 264.056,10.38 264.056,12.145 C264.056,15.712 260.592,17.393 257.375,17.393 C253.973,17.393 250.904,15.837 251.088,12.062 L255.509,12.062 C255.509,12.87 255.695,13.368 256.068,13.741 C256.463,14.073 257.004,14.114 257.749,14.114 C258.64,14.114 259.74,13.658 259.74,12.683 C259.74,11.604 258.228,11.46 256.172,10.774 C254.368,10.172 252.624,9.217 252.624,6.751 C252.624,3.409 255.861,1.873 258.848,1.873 C262.003,1.873 264.845,3.055 264.763,6.709 L260.55,6.709" id="Fill-22" fill="#1A1918"></path>
                    <polyline id="Fill-23" fill="#1A1918" points="177.207 21.195 183.578 21.195 183.763 29.162 183.804 29.162 187.849 21.195 194.345 21.195 191.191 36.009 186.958 36.009 189.242 25.8 189.199 25.8 184.343 36.009 180.962 36.009 180.423 25.8 180.381 25.8 178.347 36.009 174.116 36.009 177.207 21.195"></polyline>
                    <path d="M199.053,30.718 L201.896,30.718 L201.4,26.278 L201.358,26.278 L199.053,30.718 L199.053,30.718 Z M200.173,21.195 L204.656,21.195 L206.958,36.009 L202.477,36.009 L202.228,33.893 L197.395,33.893 L196.252,36.009 L191.606,36.009 L200.173,21.195 L200.173,21.195 Z" id="Fill-24" fill="#1A1918"></path>
                    <polyline id="Fill-25" fill="#1A1918" points="210.299 21.195 214.822 21.195 217.602 29.286 217.644 29.286 219.303 21.195 223.641 21.195 220.529 36.009 216.046 36.009 213.329 27.71 213.287 27.71 211.565 36.009 207.228 36.009 210.299 21.195"></polyline>
                    <path d="M236.731,30.987 C235.945,34.722 233.206,36.361 229.469,36.361 C225.032,36.361 223.182,34.204 223.182,31.838 C223.182,31.548 223.288,30.967 223.351,30.635 L225.32,21.195 L229.884,21.195 L228.204,29.286 C228.1,29.742 227.976,30.49 227.976,30.718 C227.976,31.175 227.851,32.669 229.699,32.669 C231.586,32.669 232.167,30.967 232.499,29.328 L234.201,21.195 L238.766,21.195 L236.731,30.987" id="Fill-26" fill="#1A1918"></path>
                    <polyline id="Fill-27" fill="#1A1918" points="240.445 21.195 251.877 21.195 251.088 24.991 244.222 24.991 243.828 26.838 249.659 26.838 248.931 30.366 243.1 30.366 241.917 36.009 237.356 36.009 240.445 21.195"></polyline>
                    <path d="M255.778,30.718 L258.621,30.718 L258.124,26.278 L258.08,26.278 L255.778,30.718 L255.778,30.718 Z M256.898,21.195 L261.38,21.195 L263.682,36.009 L259.202,36.009 L258.952,33.893 L254.119,33.893 L252.977,36.009 L248.329,36.009 L256.898,21.195 L256.898,21.195 Z" id="Fill-28" fill="#1A1918"></path>
                    <path d="M278.954,30.386 C278.684,31.9 277.523,36.361 271.36,36.361 C267.065,36.361 264.988,33.582 264.988,29.618 C264.988,24.826 267.978,20.842 273.02,20.842 C276.317,20.842 279.264,22.274 279.346,26.714 L275.032,26.714 C275.074,25.324 274.41,24.535 272.999,24.535 C270.468,24.535 269.554,27.44 269.554,29.535 C269.554,30.76 269.845,32.669 271.941,32.669 C273.372,32.669 274.182,31.694 274.472,30.386 L278.954,30.386" id="Fill-29" fill="#1A1918"></path>
                    <polyline id="Fill-30" fill="#1A1918" points="284.429 24.991 280.325 24.991 281.111 21.195 293.892 21.195 293.103 24.991 288.995 24.991 286.713 36.009 282.148 36.009 284.429 24.991"></polyline>
                    <path d="M306.195,30.987 C305.406,34.722 302.667,36.361 298.933,36.361 C294.493,36.361 292.647,34.204 292.647,31.838 C292.647,31.548 292.75,30.967 292.813,30.635 L294.784,21.195 L299.348,21.195 L297.667,29.286 C297.564,29.742 297.441,30.49 297.441,30.718 C297.441,31.175 297.314,32.669 299.163,32.669 C301.05,32.669 301.63,30.967 301.962,29.328 L303.662,21.195 L308.228,21.195 L306.195,30.987" id="Fill-31" fill="#1A1918"></path>
                    <path d="M313.042,27.668 L315.448,27.668 C316.963,27.668 317.669,26.9 317.669,26.008 C317.669,25.427 317.314,24.722 316.134,24.722 L313.664,24.722 L313.042,27.668 L313.042,27.668 Z M309.888,21.195 L317.397,21.195 C320.135,21.195 322.233,21.941 322.233,25.075 C322.233,27.233 320.904,28.809 318.769,29.162 L318.769,29.203 C320.118,29.577 320.302,30.842 320.302,32.233 C320.302,33.624 320.135,35.137 320.51,36.009 L316.155,36.009 C315.989,35.635 315.966,35.22 315.966,34.556 C315.966,33.851 316.194,32.938 316.194,32.192 C316.194,31.423 315.614,30.842 314.349,30.842 L312.376,30.842 L311.299,36.009 L306.817,36.009 L309.888,21.195 L309.888,21.195 Z" id="Fill-32" fill="#1A1918"></path>
                    <polyline id="Fill-33" fill="#1A1918" points="324.555 21.195 329.122 21.195 326.05 36.009 321.487 36.009 324.555 21.195"></polyline>
                    <polyline id="Fill-34" fill="#1A1918" points="330.718 21.195 335.243 21.195 338.022 29.286 338.062 29.286 339.724 21.195 344.061 21.195 340.948 36.009 336.465 36.009 333.748 27.71 333.707 27.71 331.984 36.009 327.647 36.009 330.718 21.195"></polyline>
                    <path d="M353.789,34.577 L353.749,34.536 C352.794,35.822 351.321,36.361 349.744,36.361 C344.557,36.361 343.728,31.963 343.728,30.117 C343.728,25.469 346.381,20.842 352.192,20.842 C355.513,20.842 358.292,22.522 358.334,26.381 L354.018,26.381 C353.895,25.011 353.084,24.535 351.923,24.535 C349.412,24.535 348.292,27.212 348.292,29.764 C348.292,31.506 349.04,32.669 350.885,32.669 C352.108,32.669 353.146,32.233 353.604,31.029 L351.528,31.029 L352.192,27.854 L358.25,27.854 L356.548,36.009 L353.665,36.009 L353.789,34.577" id="Fill-35" fill="#1A1918"></path>
                    <path d="M189.076,49.355 C188.805,50.87 187.644,55.33 181.481,55.33 C177.186,55.33 175.111,52.549 175.111,48.587 C175.111,43.795 178.099,39.811 183.139,39.811 C186.439,39.811 189.384,41.242 189.468,45.683 L185.154,45.683 C185.194,44.292 184.531,43.503 183.119,43.503 C180.589,43.503 179.675,46.408 179.675,48.504 C179.675,49.728 179.966,51.636 182.063,51.636 C183.494,51.636 184.302,50.662 184.593,49.355 L189.076,49.355" id="Fill-36" fill="#1A1918"></path>
                    <path d="M197.021,51.636 C199.759,51.636 200.651,48.4 200.651,46.201 C200.651,44.853 200.133,43.503 198.349,43.503 C195.611,43.503 194.719,46.74 194.719,48.94 C194.719,50.288 195.236,51.636 197.021,51.636 L197.021,51.636 Z M198.474,39.811 C202.665,39.811 205.217,41.781 205.217,46.304 C205.217,51.283 201.938,55.33 196.896,55.33 C192.706,55.33 190.152,53.11 190.152,48.836 C190.152,43.857 193.431,39.811 198.474,39.811 L198.474,39.811 Z" id="Fill-37" fill="#1A1918"></path>
                    <path d="M211.192,46.636 L213.599,46.636 C215.114,46.636 215.82,45.868 215.82,44.976 C215.82,44.397 215.464,43.691 214.284,43.691 L211.814,43.691 L211.192,46.636 L211.192,46.636 Z M208.039,40.163 L215.547,40.163 C218.286,40.163 220.383,40.911 220.383,44.043 C220.383,46.201 219.055,47.778 216.917,48.13 L216.917,48.172 C218.266,48.546 218.452,49.81 218.452,51.2 C218.452,52.591 218.286,54.106 218.661,54.977 L214.303,54.977 C214.138,54.604 214.116,54.189 214.116,53.525 C214.116,52.819 214.344,51.907 214.344,51.16 C214.344,50.392 213.764,49.81 212.5,49.81 L210.528,49.81 L209.45,54.977 L204.967,54.977 L208.039,40.163 L208.039,40.163 Z" id="Fill-38" fill="#1A1918"></path>
                    <path d="M225.819,46.969 L227.562,46.969 C229.388,46.969 229.989,46.284 229.989,45.289 C229.989,44.147 228.973,43.96 228.019,43.96 L226.462,43.96 L225.819,46.969 L225.819,46.969 Z M222.729,40.163 L230.072,40.163 C232.79,40.163 234.554,41.656 234.554,44.934 C234.554,47.922 232.042,50.496 228.142,50.496 L225.071,50.496 L224.137,54.977 L219.637,54.977 L222.729,40.163 L222.729,40.163 Z" id="Fill-39" fill="#1A1918"></path>
                    <path d="M241.401,51.636 C244.139,51.636 245.031,48.4 245.031,46.201 C245.031,44.853 244.514,43.503 242.728,43.503 C239.99,43.503 239.096,46.74 239.096,48.94 C239.096,50.288 239.617,51.636 241.401,51.636 L241.401,51.636 Z M242.854,39.811 C247.044,39.811 249.596,41.781 249.596,46.304 C249.596,51.283 246.318,55.33 241.276,55.33 C237.084,55.33 234.534,53.11 234.534,48.836 C234.534,43.857 237.81,39.811 242.854,39.811 L242.854,39.811 Z" id="Fill-40" fill="#1A1918"></path>
                    <path d="M255.569,46.636 L257.978,46.636 C259.493,46.636 260.2,45.868 260.2,44.976 C260.2,44.397 259.846,43.691 258.664,43.691 L256.194,43.691 L255.569,46.636 L255.569,46.636 Z M252.418,40.163 L259.93,40.163 C262.666,40.163 264.763,40.911 264.763,44.043 C264.763,46.201 263.434,47.778 261.296,48.13 L261.296,48.172 C262.645,48.546 262.833,49.81 262.833,51.2 C262.833,52.591 262.666,54.106 263.041,54.977 L258.682,54.977 C258.519,54.604 258.495,54.189 258.495,53.525 C258.495,52.819 258.727,51.907 258.727,51.16 C258.727,50.392 258.144,49.81 256.878,49.81 L254.907,49.81 L253.829,54.977 L249.347,54.977 L252.418,40.163 L252.418,40.163 Z" id="Fill-41" fill="#1A1918"></path>
                    <path d="M270.074,49.687 L272.917,49.687 L272.417,45.246 L272.378,45.246 L270.074,49.687 L270.074,49.687 Z M271.194,40.163 L275.675,40.163 L277.977,54.977 L273.498,54.977 L273.249,52.86 L268.413,52.86 L267.273,54.977 L262.624,54.977 L271.194,40.163 L271.194,40.163 Z" id="Fill-42" fill="#1A1918"></path>
                    <polyline id="Fill-43" fill="#1A1918" points="283.683 43.96 279.576 43.96 280.364 40.163 293.144 40.163 292.357 43.96 288.249 43.96 285.968 54.977 281.402 54.977 283.683 43.96"></polyline>
                    <polyline id="Fill-44" fill="#1A1918" points="294.1 40.163 298.666 40.163 295.594 54.977 291.029 54.977 294.1 40.163"></polyline>
                    <path d="M305.096,51.636 C307.833,51.636 308.727,48.4 308.727,46.201 C308.727,44.853 308.208,43.503 306.424,43.503 C303.685,43.503 302.792,46.74 302.792,48.94 C302.792,50.288 303.311,51.636 305.096,51.636 L305.096,51.636 Z M306.548,39.811 C310.738,39.811 313.292,41.781 313.292,46.304 C313.292,51.283 310.015,55.33 304.972,55.33 C300.781,55.33 298.229,53.11 298.229,48.836 C298.229,43.857 301.505,39.811 306.548,39.811 L306.548,39.811 Z" id="Fill-45" fill="#1A1918"></path>
                    <polyline id="Fill-46" fill="#1A1918" points="316.072 40.163 320.595 40.163 323.375 48.255 323.417 48.255 325.075 40.163 329.412 40.163 326.301 54.977 321.819 54.977 319.099 46.677 319.058 46.677 317.336 54.977 313 54.977 316.072 40.163"></polyline>
                    <path d="M353.987,5.677 C354.563,5.677 355.07,5.619 355.07,4.944 C355.07,4.38 354.517,4.314 354.055,4.314 L353.133,4.314 L353.133,5.677 L353.987,5.677 L353.987,5.677 Z M353.133,8.323 L352.367,8.323 L352.367,3.66 L354.134,3.66 C355.26,3.66 355.835,4.054 355.835,5.001 C355.835,5.845 355.316,6.194 354.619,6.274 L355.925,8.323 L355.057,8.323 L353.854,6.329 L353.133,6.329 L353.133,8.323 L353.133,8.323 Z M353.966,2.432 C352.141,2.432 350.72,3.864 350.72,5.913 C350.72,7.828 351.958,9.393 353.966,9.393 C355.767,9.393 357.187,7.974 357.187,5.913 C357.187,3.864 355.767,2.432 353.966,2.432 L353.966,2.432 Z M353.966,10.126 C351.543,10.126 349.821,8.311 349.821,5.913 C349.821,3.379 351.735,1.7 353.966,1.7 C356.172,1.7 358.086,3.379 358.086,5.913 C358.086,8.447 356.172,10.126 353.966,10.126 L353.966,10.126 Z" id="Fill-47" fill="#1A1918"></path>
                </g>
            </g>
        </g>
    </g>
</svg>